<svg width="16" height="16" viewBox="0 0 16 16" fill="none" xmlns="http://www.w3.org/2000/svg">
<path fill-rule="evenodd" clip-rule="evenodd" d="M2.16675 6.76216C2.16675 3.49616 4.77008 0.833496 8.00008 0.833496C11.2301 0.833496 13.8334 3.49616 13.8334 6.76216C13.8334 8.33883 13.3841 10.0322 12.5894 11.4948C11.7961 12.9555 10.6374 14.2248 9.18675 14.9028C8.81529 15.0766 8.41019 15.1667 8.00008 15.1667C7.58997 15.1667 7.18487 15.0766 6.81341 14.9028C5.36275 14.2248 4.20408 12.9562 3.41075 11.4948C2.61608 10.0322 2.16675 8.33883 2.16675 6.76216ZM8.00008 1.8335C5.33875 1.8335 3.16675 4.0315 3.16675 6.76216C3.16675 8.16016 3.56875 9.69016 4.28941 11.0175C5.01075 12.3462 6.03075 13.4335 7.23608 13.9968C7.47509 14.1088 7.73581 14.1669 7.99975 14.1669C8.26369 14.1669 8.5244 14.1088 8.76341 13.9968C9.96941 13.4335 10.9894 12.3462 11.7107 11.0175C12.4314 9.69083 12.8334 8.16016 12.8334 6.76216C12.8334 4.0315 10.6614 1.8335 8.00008 1.8335ZM8.00008 5.16683C7.8031 5.16683 7.60804 5.20563 7.42606 5.28101C7.24407 5.35639 7.07871 5.46688 6.93942 5.60617C6.80013 5.74546 6.68964 5.91082 6.61426 6.0928C6.53888 6.27479 6.50008 6.46985 6.50008 6.66683C6.50008 6.86381 6.53888 7.05887 6.61426 7.24085C6.68964 7.42284 6.80013 7.5882 6.93942 7.72749C7.07871 7.86678 7.24407 7.97727 7.42606 8.05265C7.60804 8.12803 7.8031 8.16683 8.00008 8.16683C8.39791 8.16683 8.77944 8.00879 9.06074 7.72749C9.34205 7.44618 9.50008 7.06465 9.50008 6.66683C9.50008 6.269 9.34205 5.88747 9.06074 5.60617C8.77944 5.32486 8.39791 5.16683 8.00008 5.16683ZM5.50008 6.66683C5.50008 6.00379 5.76347 5.3679 6.23231 4.89906C6.70116 4.43022 7.33704 4.16683 8.00008 4.16683C8.66312 4.16683 9.29901 4.43022 9.76785 4.89906C10.2367 5.3679 10.5001 6.00379 10.5001 6.66683C10.5001 7.32987 10.2367 7.96575 9.76785 8.4346C9.29901 8.90344 8.66312 9.16683 8.00008 9.16683C7.33704 9.16683 6.70116 8.90344 6.23231 8.4346C5.76347 7.96575 5.50008 7.32987 5.50008 6.66683Z" fill="#697586"/>
</svg>
