<svg width="20" height="20" viewBox="0 0 20 20" fill="none" xmlns="http://www.w3.org/2000/svg">
<path d="M15.6249 8.09181V7.5043C15.6249 4.28011 13.1049 1.66675 9.99988 1.66675C6.89485 1.66675 4.37482 4.28011 4.37482 7.5043V8.09181C4.37583 8.79311 4.17569 9.47999 3.79815 10.071L2.87481 11.5085C2.0323 12.821 2.67564 14.6052 4.14149 15.0202C7.97161 16.106 12.0281 16.106 15.8583 15.0202C17.3241 14.6052 17.9674 12.821 17.1249 11.5093L16.2016 10.0718C15.8238 9.48091 15.6233 8.79402 15.6241 8.09264L15.6249 8.09181Z" stroke="#171725" stroke-width="1.25001"/>
<path d="M6.25 15.8335C6.79584 17.2902 8.26835 18.3335 10 18.3335C11.7317 18.3335 13.2042 17.2902 13.7501 15.8335" stroke="#171725" stroke-width="1.25001" stroke-linecap="round"/>
</svg>
